Coordinates
version=1
nRows=17
nColumns=24
inDegrees=yes

Units are S.I. units (second, meters, Newtons, ...)
Angles are in degrees.

endheader
time	pelvis_tilt	pelvis_list	pelvis_rotation	pelvis_tx	pelvis_ty	pelvis_tz	hip_flexion_r	hip_adduction_r	hip_rotation_r	knee_angle_r	ankle_angle_r	subtalar_angle_r	mtp_angle_r	hip_flexion_l	hip_adduction_l	hip_rotation_l	knee_angle_l	ankle_angle_l	subtalar_angle_l	mtp_angle_l	lumbar_extension	lumbar_bending	lumbar_rotation
      3.83000000	    -16.29534174	      2.84303707	     -8.81096885	     -1.20143991	     -0.03569308	     -0.33287003	     -0.53768433	     -1.74950076	      2.21994273	    -20.30677123	      5.63994215	      0.70387607	      3.68099452	     42.73974895	     -5.34737787	    -18.80012014	    -14.97881019	     -2.70435583	      6.63200361	     20.38375203	     19.57326080	     -1.98183598	     -1.39671335
      3.83500000	    -16.19024770	      3.05728416	     -8.82449519	     -1.19344125	     -0.03670522	     -0.33369374	     -0.65090812	     -2.18903316	      1.93464148	    -21.08505280	      4.94549425	      0.90167293	      4.68166551	     42.72046181	     -5.11855489	    -18.56427158	    -15.76603224	     -3.39337638	      5.93598032	     20.43023363	     19.62498740	     -2.19952349	     -1.38808098
      3.84000000	    -16.16274268	      3.38049444	     -8.92791606	     -1.18530140	     -0.03767102	     -0.33422323	     -0.63776389	     -2.67665794	      1.99286328	    -21.91966871	      4.16263229	      0.81483203	      4.99416178	     42.75230161	     -4.89604761	    -18.56703038	    -16.56480993	     -4.18058015	      5.34032154	     20.33653959	     19.81463383	     -2.50407301	     -1.25171967
      3.84500000	    -16.13630208	      3.65996713	     -8.84878400	     -1.17714773	     -0.03866511	     -0.33519424	     -0.59842304	     -3.19933290	      1.51586368	    -22.76525152	      3.23304572	      0.94171547	      6.64906353	     42.83317497	     -4.53634145	    -18.25508049	    -17.39339899	     -5.09409845	      4.36392190	     20.25794636	     19.98026955	     -2.80193217	     -1.33271840
      3.85000000	    -16.10419121	      4.02619158	     -9.00721956	     -1.16907643	     -0.03949269	     -0.33569770	     -0.43322454	     -3.73885980	      1.55150761	    -23.78983696	      2.24255431	      0.79314653	      7.02179046	     42.85809825	     -4.28147366	    -18.13574922	    -18.20727611	     -5.95215818	      3.46012007	     20.00454185	     20.16780215	     -3.12419690	     -1.09904010
      3.85500000	    -16.13902669	      4.37524579	     -8.86172787	     -1.16085337	     -0.04043083	     -0.33674685	     -0.22368189	     -4.35053801	      0.89789631	    -24.73470896	      1.01975869	      0.71257218	      9.53972457	     43.02633230	     -3.79246631	    -17.60659203	    -19.10200430	     -6.77190815	      2.40222282	     19.34044189	     20.41982017	     -3.50306746	     -1.15123215
      3.86000000	    -16.14672327	      4.73809965	     -8.91916277	     -1.15287696	     -0.04121800	     -0.33760995	      0.11579479	     -4.94865351	      0.62791145	    -25.91550876	     -0.19036632	      0.71644651	     10.53324061	     43.15934281	     -3.40832236	    -17.18811064	    -20.01015267	     -7.52121464	      1.10084383	     18.69442296	     20.61993534	     -3.81407067	     -1.02107650
      3.86500000	    -16.13877157	      5.13669597	     -8.89668914	     -1.14475927	     -0.04189256	     -0.33843202	      0.42439802	     -5.58120586	      0.29021670	    -26.97957059	     -1.74887175	      0.21651285	     13.20058251	     43.29173696	     -2.93634255	    -16.71524052	    -21.01190140	     -7.98782105	      0.12220428	     17.25122070	     20.83021401	     -4.21770587	     -0.95538301
      3.87000000	    -16.17172938	      5.53989429	     -8.87968254	     -1.13674972	     -0.04260240	     -0.33935068	      0.90853151	     -6.23037473	     -0.07622323	    -28.32067749	     -3.20470602	      0.10841446	     13.93587300	     43.46282965	     -2.42302814	    -16.09965739	    -21.95552153	     -8.43540330	     -1.26912441	     16.48695108	     21.06910219	     -4.59594812	     -0.84355002
      3.87500000	    -16.17552753	      5.95130193	     -8.82489258	     -1.12870806	     -0.04320118	     -0.34027628	      1.37051192	     -6.89748310	     -0.46980234	    -29.54521639	     -5.02797961	     -0.56095543	     16.83233413	     43.63892024	     -1.87559961	    -15.53795880	    -23.08042069	     -8.41842494	     -2.11473455	     14.32434202	     21.27565815	     -5.00981641	     -0.81526703
      3.88000000	    -16.23521429	      6.38628903	     -8.71410268	     -1.12065225	     -0.04385485	     -0.34129564	      1.97474333	     -7.60126442	     -0.94305062	    -30.96250218	     -6.79719557	     -0.98649758	     18.28454733	     43.84902575	     -1.24496827	    -14.91933648	    -24.11068600	     -8.41880374	     -3.26851095	     12.97491663	     21.54813740	     -5.44730747	     -0.80154237
      3.88500000	    -16.24309975	      6.78917437	     -8.67433845	     -1.11277353	     -0.04438752	     -0.34226279	      2.60701139	     -8.26057406	     -1.24400504	    -32.42673746	     -8.72119597	     -1.66719027	     20.14234553	     44.00004576	     -0.66616884	    -14.33789418	    -25.19138366	     -8.15131526	     -4.24764852	     11.18725874	     21.73611440	     -5.83277456	     -0.71291975
      3.89000000	    -16.20500902	      7.17554890	     -8.66329132	     -1.10497762	     -0.04481799	     -0.34316038	      3.25121091	     -8.88933111	     -1.44203687	    -33.93900202	    -10.73324058	     -2.51117011	     21.93422498	     44.07405558	     -0.11034700	    -13.83274119	    -26.25083433	     -7.69646947	     -5.06158838	      9.44668523	     21.86134636	     -6.20270959	     -0.59264774
      3.89500000	    -16.15593977	      7.54916327	     -8.65753544	     -1.09726925	     -0.04519862	     -0.34403292	      3.94676686	     -9.48968413	     -1.57083818	    -35.52075527	    -12.76828153	     -3.46020756	     23.47935684	     44.10421914	      0.43293057	    -13.41653741	    -27.26106374	     -7.12958143	     -5.77370470	      7.88506145	     21.95957707	     -6.56049557	     -0.46904270
      3.90000000	    -15.97570955	      7.93474264	     -8.70185468	     -1.08967791	     -0.04538862	     -0.34465174	      4.58169880	    -10.06941116	     -1.58595292	    -37.22597878	    -14.73530698	     -4.48591736	     23.61857839	     43.92090298	      0.94943625	    -13.17315745	    -28.08756027	     -6.66017753	     -6.53838458	      7.58135624	     21.91314908	     -6.96269340	     -0.30533793
      3.90500000	    -16.00131504	      8.25364950	     -8.67996196	     -1.08220538	     -0.04579436	     -0.34561895	      5.46578615	    -10.58484946	     -1.63344356	    -38.88563504	    -16.71867347	     -5.70531738	     25.75235773	     43.99900564	      1.43975805	    -12.90813498	    -29.10566898	     -5.75294846	     -6.82363445	      5.31860560	     22.04131595	     -7.24682742	     -0.20583481
      3.91000000	    -15.83306528	      8.64286326	     -8.68811289	     -1.07473067	     -0.04589409	     -0.34630174	      6.19407732	    -11.13870841	     -1.56234086	    -40.65158789	    -18.53068336	     -6.86909737	     25.81101817	     43.73126807	      1.99433247	    -12.74846427	    -29.75639799	     -5.18446674	     -7.40998095	      5.15308133	     21.98809851	     -7.65777643	     -0.07078619
